<?xml version="1.0" encoding="utf-8"?>
<!-- Generator: Adobe Illustrator 16.0.0, SVG Export Plug-In . SVG Version: 6.00 Build 0)  -->
<!DOCTYPE svg PUBLIC "-//W3C//DTD SVG 1.1//EN" "http://www.w3.org/Graphics/SVG/1.1/DTD/svg11.dtd">
<svg version="1.1" id="Layer_1" xmlns="http://www.w3.org/2000/svg" xmlns:xlink="http://www.w3.org/1999/xlink" x="0px" y="0px"
	 width="189.003px" height="44.855px" viewBox="0 0 189.003 44.855" enable-background="new 0 0 189.003 44.855"
	 xml:space="preserve">
<polygon fill-rule="evenodd" clip-rule="evenodd" fill="#2173B9" points="135.796,36.022 129.641,36.022 126.535,30.598 
	132.729,30.598 "/>
<polygon fill-rule="evenodd" clip-rule="evenodd" fill="#4A8EC6" points="135.796,36.022 129.641,36.022 132.724,41.444 "/>
<g>
	<polygon fill="#2074B8" points="189.241,27.286 189.239,27.289 189.144,27.456 188.163,29.188 187.933,29.595 187.933,41.474 
		189.308,41.474 189.308,27.286 	"/>
	<path fill="#2074B8" d="M160.254,32.17c-0.419-0.467-0.935-0.841-1.557-1.124c-0.617-0.281-1.33-0.422-2.139-0.422
		c-0.778,0-1.489,0.141-2.128,0.422c-0.639,0.283-1.199,0.673-1.673,1.17c-0.472,0.495-0.839,1.077-1.098,1.748
		s-0.388,1.405-0.388,2.197c0,0.828,0.123,1.304,0.375,1.985c0.251,0.676,0.614,1.267,1.09,1.762
		c0.47,0.495,1.037,0.882,1.693,1.157c0.655,0.272,1.389,0.408,2.197,0.408c0.944,0,1.812-0.174,2.6-0.524
		c0.783-0.35,1.444-0.93,1.977-1.739l-1.007-0.847c-0.35,0.58-0.853,1.035-1.51,1.375c-0.655,0.333-1.333,0.503-2.039,0.503
		c-0.807,0-1.468-0.155-1.979-0.458c-0.512-0.307-0.921-0.671-1.225-1.101c-0.307-0.428-0.803-1.372-0.803-2.157h8.885V35.57
		c0-0.611-0.111-1.218-0.323-1.81C160.993,33.164,160.675,32.634,160.254,32.17z M152.643,35.293c0-0.137,0.062-0.395,0.184-0.766
		c0.123-0.377,0.328-0.762,0.619-1.158c0.289-0.396,0.683-0.75,1.181-1.054c0.493-0.304,1.114-0.458,1.864-0.458
		c0.505,0,0.981,0.094,1.431,0.276c0.449,0.182,0.84,0.431,1.17,0.744c0.324,0.312,0.583,0.675,0.777,1.086
		c0.187,0.413,0.283,0.855,0.283,1.329H152.643z"/>
	<path fill="#2074B8" d="M185.81,39.572c-0.016-0.35-0.025-0.729-0.036-1.142c-0.007-0.412-0.011-0.88-0.011-1.398v-2.583
		c0-1.346-0.383-2.316-1.146-2.922c-0.761-0.602-1.782-0.902-3.067-0.902c-0.641,0-1.311,0.119-2.006,0.341L178.389,33
		c0.917-0.756,1.972-1.143,3.161-1.143c0.859,0,1.563,0.199,2.131,0.597c0.564,0.397,0.847,0.778,0.847,1.696v0.641h-1.603
		c-0.516,0-1.117,0.032-1.799,0.104c-0.676,0.068-1.318,0.222-1.92,0.455c-0.606,0.239-1.111,0.596-1.523,1.068
		c-0.414,0.472-0.617,1.113-0.617,1.922c0,0.562,0.111,1.046,0.331,1.443c0.221,0.396,0.506,0.721,0.859,0.97
		c0.351,0.255,0.747,0.437,1.19,0.552c0.443,0.112,0.895,0.169,1.352,0.169c0.898,0,1.643-0.158,2.23-0.479
		c0.588-0.32,1.08-0.823,1.477-1.51h0.047c0,0.626,0.043,1.471,0.137,1.989h1.28c-0.047-0.308-0.079-0.611-0.103-0.916
		C185.841,40.252,185.823,39.924,185.81,39.572z M184.527,36.6c0,0.443-0.054,0.885-0.159,1.314
		c-0.11,0.438-0.303,0.826-0.585,1.169c-0.282,0.345-0.661,0.623-1.135,0.837c-0.472,0.214-1.075,0.321-1.808,0.321
		c-0.288,0-0.574-0.043-0.858-0.127c-0.28-0.085-0.536-0.206-0.766-0.368c-0.229-0.16-0.417-0.364-0.56-0.615
		c-0.147-0.256-0.217-0.539-0.217-0.859c0-0.459,0.127-0.84,0.386-1.146c0.261-0.305,0.606-0.548,1.045-0.731
		c0.433-0.185,0.923-0.312,1.463-0.388c0.542-0.076,1.101-0.115,1.683-0.115h1.511V36.6z"/>
	<path fill="#2074B8" d="M148.323,32.034c-0.3-0.422-0.707-0.763-1.227-1.021c-0.518-0.259-1.19-0.388-2.015-0.388
		c-0.855,0-1.601,0.21-2.242,0.628s-1.442,1.502-1.442,1.502c-0.03-0.108-0.048-0.336-0.058-0.687l-0.979,1.734l-0.301,0.525
		l-0.013,0.022v7.124h1.372v-5.287c0-0.731,0.098-1.37,0.285-1.915c0.19-0.54,0.451-0.989,0.781-1.349
		c0.327-0.358,0.717-0.627,1.167-0.802c0.449-0.172,0.927-0.264,1.43-0.264c0.549,0,0.997,0.097,1.341,0.289
		c0.344,0.19,0.607,0.446,0.803,0.766c0.189,0.32,0.32,0.684,0.4,1.09c0.074,0.402,0.111,0.817,0.111,1.245v6.227h1.374v-6.297
		c0-0.579-0.056-1.143-0.174-1.691C148.823,32.937,148.619,32.452,148.323,32.034z"/>
	<path fill="#2074B8" d="M173.335,32.192c-0.496-0.497-1.082-0.881-1.763-1.155c-0.681-0.275-1.424-0.412-2.232-0.412
		c-0.396,0-0.8,0.042-1.212,0.124c-0.413,0.086-0.805,0.217-1.179,0.391c-0.375,0.174-0.72,0.396-1.041,0.663
		c-0.322,0.269-0.589,0.585-0.8,0.952h-0.045v-0.853l-1.077,1.9l-0.301,0.525V44.55h1.378v-5.233h0.045
		c0.211,0.367,0.478,0.684,0.8,0.951c0.321,0.271,0.666,0.49,1.041,0.665c0.374,0.174,0.766,0.304,1.179,0.389
		c0.412,0.084,0.815,0.122,1.212,0.122c0.809,0,1.552-0.135,2.232-0.408c0.681-0.275,1.267-0.661,1.763-1.157
		c0.496-0.495,0.883-1.084,1.157-1.76c0.272-0.683,0.412-1.427,0.412-2.233c0-0.811-0.14-1.252-0.412-1.933
		C174.218,33.277,173.831,32.688,173.335,32.192z M169.296,40.142c-2.269,0-4.107-1.838-4.107-4.106
		c0-2.271,1.839-4.108,4.107-4.108c2.27,0,4.107,1.838,4.107,4.108C173.403,38.304,171.565,40.142,169.296,40.142z"/>
</g>
<g>
	<path fill-rule="evenodd" clip-rule="evenodd" fill="#2173B9" d="M144.806,0.783c0.557,0,1.009,0.451,1.009,1.008
		c0,0.558-0.452,1.008-1.009,1.008s-1.008-0.45-1.008-1.008C143.798,1.234,144.249,0.783,144.806,0.783"/>
	<g>
		<path fill="#2173B9" d="M2.164,9.704H0.305V5.718h1.859V5.364c0-4.989,4.518-5.668,6.967-5.668c0.916,0,1.536,0.089,1.536,0.089
			v4.31c0,0-0.354-0.058-0.826-0.058c-1.003,0-2.568,0.177-2.568,1.476v0.206h2.805v3.985H7.272v11.568H2.164V9.704z"/>
		<path fill="#2173B9" d="M13.401,10.349c0-0.414-0.236-0.65-0.649-0.65h-1.121v-3.98h4.723c1.507,0,2.156,0.65,2.156,2.155v6.734
			c0,3.241,4.841,2.956,4.841-0.004V5.718h5.107v10.249c0,0.411,0.237,0.649,0.649,0.649h1.123v4.653l-4.518,0.001
			c-1.386,0-2.126-1.053-2.126-2.087v-0.561h-0.059c-0.826,1.623-2.688,2.628-4.723,2.628c-3.013,0-5.404-1.418-5.404-5.699V10.349z
			"/>
		<path fill="#2173B9" d="M34.062,15.36c0,0,2.125,2.136,4.458,2.136c0.737,0,1.149-0.202,1.149-0.723
			c0-1.24-7.616-1.645-7.616-6.465c0-3.204,3.041-4.59,6.259-4.59c2.479,0,5.905,0.692,5.905,3.378v1.473h-4.429v-0.435
			c0-0.404-0.649-0.691-1.389-0.691c-0.708,0-1.357,0.23-1.357,0.691c0,1.53,7.706,1.328,7.706,6.323
			c0,3.001-2.687,4.818-6.229,4.818c-4.371,0-6.734-2.713-6.734-2.713L34.062,15.36z"/>
		<path fill="#2173B9" d="M53.987,5.719c4.38,0,6.858,3.056,6.858,7.176c0,0.489-0.115,1.498-0.115,1.498h-9.366
			c0.374,1.873,1.873,2.709,3.458,2.709c2.132,0,3.948-1.557,3.948-1.557l1.988,3.342c0,0-2.392,2.364-6.339,2.364
			c-5.304,0-8.155-3.833-8.155-7.78C46.265,9.12,49.204,5.719,53.987,5.719 M55.745,11.368c0-0.922-0.722-1.902-1.758-1.902
			c-1.44,0-2.161,0.807-2.478,1.902H55.745z"/>
		<rect x="68.563" y="-0.277" fill="#2173B9" width="1.694" height="27.562"/>
		<path fill="#2173B9" d="M97.038,21.273v-10c0-1.486-0.29-2.571-0.87-3.254C95.59,7.337,94.7,6.996,93.504,6.996
			c-1.562,0-2.716,0.43-3.465,1.291c-0.749,0.859-1.121,2.21-1.121,4.053v8.934H87.5V10.852c0-2.571-1.178-3.856-3.533-3.856
			c-1.6,0-2.763,0.466-3.493,1.396c-0.729,0.93-1.093,2.419-1.093,4.467v8.415h-1.39V5.775h1.15l0.295,2.343h0.084
			c0.422-0.758,1.02-1.344,1.796-1.761c0.775-0.415,1.632-0.625,2.566-0.625c2.403,0,3.946,0.904,4.628,2.708h0.058
			c0.494-0.869,1.161-1.537,1.997-2.005c0.836-0.469,1.788-0.703,2.854-0.703c1.664,0,2.911,0.446,3.744,1.335
			c0.833,0.887,1.248,2.299,1.248,4.233v9.973H97.038z"/>
		<path fill="#2173B9" d="M111.715,21.265l-0.372-2.678h-0.111c-0.768,0.981-1.555,1.676-2.364,2.082
			c-0.808,0.407-1.764,0.61-2.867,0.61c-1.496,0-2.66-0.383-3.492-1.15c-0.832-0.766-1.248-1.828-1.248-3.184
			c0-1.486,0.619-2.642,1.858-3.464c1.237-0.822,3.031-1.257,5.379-1.305l2.901-0.085V11.32c0-1.448-0.293-2.542-0.883-3.28
			c-0.589-0.738-1.538-1.107-2.847-1.107c-1.411,0-2.876,0.392-4.391,1.178l-0.519-1.206c1.675-0.786,3.328-1.178,4.966-1.178
			c1.674,0,2.923,0.434,3.751,1.304c0.827,0.869,1.241,2.226,1.241,4.066l0.021,10.169H111.715z M106.084,20.018
			c1.628,0,2.911-0.466,3.85-1.396c0.94-0.93,1.409-2.222,1.409-3.877v-1.502l-2.664,0.114c-2.141,0.102-3.668,0.436-4.579,1.001
			c-0.912,0.566-1.367,1.448-1.367,2.645c0,0.953,0.292,1.694,0.877,2.223C104.192,19.753,105.019,20.018,106.084,20.018z"/>
		<path fill="#2173B9" d="M122.571,21.273c-2.179,0-3.886-0.688-5.119-2.062c-1.234-1.374-1.851-3.291-1.851-5.75
			c0-2.523,0.64-4.208,1.92-5.617c1.281-1.407,3.034-2.111,5.26-2.111c1.318,0,2.58,0.23,3.787,0.688l-0.379,1.234
			c-1.319-0.439-2.463-0.659-3.437-0.659c-1.87,0-3.286,0.577-4.25,1.731c-0.963,1.154-1.443,2.537-1.443,4.705
			c0,2.057,0.48,3.667,1.443,4.832c0.964,1.164,2.311,1.746,4.039,1.746c1.385,0,2.67-0.248,3.857-0.743v1.29
			C125.427,21.035,124.15,21.273,122.571,21.273"/>
		<path fill="#2173B9" d="M139.878,21.273v-9.888c0-1.533-0.322-2.647-0.968-3.346c-0.645-0.695-1.646-1.044-3.002-1.044
			c-1.822,0-3.157,0.461-4.003,1.382c-0.846,0.92-1.269,2.415-1.269,4.48v8.415h-1.389V-0.28h1.389v6.673l-0.071,1.948h0.1
			c0.569-0.916,1.289-1.579,2.158-1.991c0.871-0.411,1.95-0.618,3.241-0.618c3.459,0,5.189,1.856,5.189,5.568v9.973H139.878z"/>
		<path fill="#2173B9" d="M159,21.273v-9.888c0-1.533-0.323-2.647-0.968-3.346c-0.646-0.695-1.646-1.044-3-1.044
			c-1.823,0-3.158,0.461-4.005,1.382c-0.846,0.92-1.27,2.415-1.27,4.48v8.415h-1.389l0.011-15.555h1.177l0.258,2.399h0.085
			c0.99-1.59,2.752-2.386,5.286-2.386c3.459,0,5.189,1.856,5.189,5.568v9.973H159z"/>
		<path fill="#2173B9" d="M170.256,21.265c-2.217,0-3.943-0.684-5.184-2.048c-1.238-1.365-1.857-2.988-1.857-5.448
			c0-2.431,0.598-4.377,1.795-5.841c1.195-1.463,2.809-2.196,4.839-2.196c1.795,0,3.211,0.628,4.25,1.881
			c1.036,1.254,1.556,2.954,1.556,5.104v1.122h-10.98c0.019,2.095,0.508,3.405,1.465,4.509c0.958,1.104,2.33,1.655,4.117,1.655
			c0.868,0,1.633-0.061,2.292-0.183c0.659-0.121,1.494-0.383,2.504-0.786v1.263c-0.86,0.374-1.655,0.629-2.384,0.765
			C171.938,21.197,171.134,21.265,170.256,21.265 M169.849,6.967c-1.468,0-2.646,0.484-3.535,1.451
			c-0.888,0.968-1.407,2.363-1.557,4.188h9.426c0-1.768-0.385-3.148-1.15-4.145C172.265,7.465,171.205,6.967,169.849,6.967z"/>
		<path fill="#2173B9" d="M189.307,17.023c0,1.365-0.52,2.415-1.557,3.149c-1.038,0.733-2.511,1.101-4.418,1.101
			c-2.038,0-3.656-0.313-4.852-0.939v-1.5c1.532,0.766,3.15,1.148,4.852,1.148c1.505,0,2.647-0.249,3.428-0.75
			c0.782-0.5,1.172-1.166,1.172-1.999c0-3.715-6.722-2.966-8.604-5.967c-0.312-0.5-0.47-1.11-0.47-1.831
			c0-1.14,0.479-2.041,1.438-2.706c0.958-0.664,2.297-0.997,4.018-0.997c1.646,0,3.206,0.31,4.684,0.927l-0.519,1.263
			c-1.497-0.617-2.885-0.926-4.165-0.926c-1.244,0-2.23,0.206-2.96,0.617c-0.729,0.412-1.094,0.981-1.094,1.71
			c0,3.604,6.672,2.854,8.576,5.919C189.149,15.747,189.307,16.34,189.307,17.023"/>
		<rect x="144.111" y="5.717" fill="#2173B9" width="1.389" height="15.556"/>
	</g>
</g>
<polygon fill-rule="evenodd" clip-rule="evenodd" fill="#7AACD5" points="126.318,41.444 132.474,41.444 129.391,36.022 "/>
</svg>
