<?xml version="1.0" encoding="utf-8"?>
<!-- Generator: Adobe Illustrator 16.0.0, SVG Export Plug-In . SVG Version: 6.00 Build 0)  -->
<!DOCTYPE svg PUBLIC "-//W3C//DTD SVG 1.1//EN" "http://www.w3.org/Graphics/SVG/1.1/DTD/svg11.dtd">
<svg version="1.1" id="Layer_1" xmlns="http://www.w3.org/2000/svg" xmlns:xlink="http://www.w3.org/1999/xlink" x="0px" y="0px"
	 width="206.719px" height="57.982px" viewBox="0 0 206.719 57.982" enable-background="new 0 0 206.719 57.982"
	 xml:space="preserve">
<rect x="-0.002" y="0" fill-rule="evenodd" clip-rule="evenodd" fill="none" width="206.719" height="57.981"/>
<g>
	<path fill-rule="evenodd" clip-rule="evenodd" fill="#2374BA" d="M153.355,7.651c0.557,0,1.01,0.451,1.01,1.008
		c0,0.558-0.453,1.008-1.01,1.008s-1.008-0.45-1.008-1.008C152.348,8.102,152.799,7.651,153.355,7.651"/>
	<g>
		<path fill="#2374BA" d="M10.718,16.572h-1.86v-3.985h1.86v-0.354c0-4.989,4.517-5.668,6.966-5.668
			c0.916,0,1.536,0.089,1.536,0.089v4.31c0,0-0.354-0.058-0.827-0.058c-1.003,0-2.568,0.177-2.568,1.476v0.206h2.806v3.985h-2.806
			V28.14h-5.107V16.572z"/>
		<path fill="#2374BA" d="M21.955,17.217c0-0.414-0.237-0.65-0.65-0.65h-1.12v-3.98h4.722c1.507,0,2.156,0.65,2.156,2.155v6.734
			c0,3.241,4.841,2.956,4.841-0.004v-8.885h5.108v10.249c0,0.411,0.237,0.649,0.649,0.649h1.123v4.653l-4.518,0.001
			c-1.387,0-2.126-1.053-2.126-2.087v-0.561h-0.059c-0.827,1.623-2.688,2.628-4.724,2.628c-3.012,0-5.403-1.418-5.403-5.699V17.217z
			"/>
		<path fill="#2374BA" d="M42.615,22.228c0,0,2.125,2.136,4.458,2.136c0.737,0,1.149-0.202,1.149-0.723
			c0-1.24-7.616-1.645-7.616-6.464c0-3.204,3.041-4.59,6.258-4.59c2.479,0,5.905,0.692,5.905,3.378v1.473h-4.429v-0.435
			c0-0.404-0.649-0.691-1.389-0.691c-0.708,0-1.357,0.23-1.357,0.691c0,1.53,7.706,1.328,7.706,6.323
			c0,3.001-2.687,4.818-6.229,4.818c-4.371,0-6.734-2.713-6.734-2.713L42.615,22.228z"/>
		<path fill="#2374BA" d="M62.54,12.587c4.38,0,6.858,3.056,6.858,7.175c0,0.489-0.115,1.498-0.115,1.498h-9.366
			c0.374,1.873,1.873,2.709,3.458,2.709c2.132,0,3.948-1.557,3.948-1.557l1.988,3.342c0,0-2.392,2.364-6.339,2.364
			c-5.304,0-8.155-3.833-8.155-7.78C54.817,15.988,57.757,12.587,62.54,12.587 M64.298,18.236c0-0.922-0.722-1.902-1.758-1.902
			c-1.44,0-2.161,0.807-2.478,1.902H64.298z"/>
		<rect x="77.116" y="6.591" fill="#2374BA" width="1.694" height="27.562"/>
		<path fill="#2374BA" d="M105.589,28.141v-10c0-1.486-0.289-2.571-0.869-3.254c-0.578-0.682-1.468-1.023-2.664-1.023
			c-1.561,0-2.715,0.43-3.464,1.291c-0.749,0.859-1.121,2.21-1.121,4.052v8.934h-1.418V17.72c0-2.571-1.178-3.856-3.533-3.856
			c-1.6,0-2.763,0.466-3.493,1.396c-0.729,0.93-1.093,2.419-1.093,4.466v8.415h-1.39V12.643h1.15l0.295,2.343h0.084
			c0.422-0.758,1.02-1.344,1.796-1.761C90.644,12.81,91.5,12.6,92.435,12.6c2.403,0,3.946,0.904,4.628,2.708h0.058
			c0.494-0.869,1.161-1.537,1.997-2.005c0.836-0.469,1.788-0.703,2.854-0.703c1.664,0,2.91,0.446,3.744,1.335
			c0.832,0.887,1.248,2.299,1.248,4.233v9.972H105.589z"/>
		<path fill="#2374BA" d="M120.267,28.133l-0.373-2.678h-0.111c-0.768,0.981-1.555,1.676-2.363,2.082
			c-0.809,0.407-1.764,0.61-2.867,0.61c-1.496,0-2.66-0.383-3.492-1.15c-0.832-0.766-1.248-1.828-1.248-3.184
			c0-1.486,0.619-2.642,1.857-3.464s3.031-1.257,5.379-1.305l2.902-0.085v-0.772c0-1.448-0.293-2.542-0.883-3.28
			s-1.539-1.107-2.848-1.107c-1.41,0-2.875,0.392-4.391,1.178l-0.518-1.206c1.674-0.786,3.328-1.178,4.965-1.178
			c1.674,0,2.924,0.434,3.752,1.304c0.826,0.869,1.24,2.226,1.24,4.066l0.021,10.168H120.267z M114.636,26.886
			c1.627,0,2.91-0.466,3.85-1.396c0.939-0.93,1.408-2.222,1.408-3.877V20.11l-2.664,0.114c-2.141,0.102-3.668,0.436-4.578,1.001
			c-0.912,0.566-1.367,1.448-1.367,2.645c0,0.953,0.291,1.694,0.877,2.223C112.743,26.621,113.569,26.886,114.636,26.886z"/>
		<path fill="#2374BA" d="M131.122,28.141c-2.178,0-3.885-0.688-5.119-2.062c-1.234-1.374-1.85-3.291-1.85-5.75
			c0-2.523,0.639-4.208,1.92-5.617c1.281-1.407,3.033-2.111,5.26-2.111c1.318,0,2.58,0.23,3.787,0.688l-0.379,1.234
			c-1.32-0.439-2.463-0.659-3.438-0.659c-1.869,0-3.285,0.577-4.25,1.731c-0.963,1.154-1.443,2.537-1.443,4.705
			c0,2.057,0.48,3.667,1.443,4.832c0.965,1.164,2.311,1.746,4.039,1.746c1.385,0,2.67-0.248,3.857-0.743v1.29
			C133.978,27.902,132.702,28.141,131.122,28.141"/>
		<path fill="#2374BA" d="M148.428,28.141v-9.887c0-1.533-0.322-2.647-0.967-3.346c-0.645-0.695-1.646-1.044-3.001-1.044
			c-1.822,0-3.158,0.461-4.004,1.382c-0.846,0.92-1.268,2.415-1.268,4.48v8.415H137.8V6.588h1.389v6.673l-0.072,1.948h0.1
			c0.57-0.916,1.289-1.579,2.158-1.991c0.871-0.411,1.951-0.618,3.241-0.618c3.459,0,5.189,1.856,5.189,5.568v9.972H148.428z"/>
		<path fill="#2374BA" d="M167.551,28.141v-9.887c0-1.533-0.324-2.647-0.969-3.346c-0.645-0.695-1.646-1.044-3-1.044
			c-1.822,0-3.158,0.461-4.004,1.382c-0.846,0.92-1.27,2.415-1.27,4.48v8.415h-1.389l0.01-15.554h1.178l0.258,2.399h0.084
			c0.99-1.59,2.752-2.386,5.287-2.386c3.459,0,5.189,1.856,5.189,5.568v9.972H167.551z"/>
		<path fill="#2374BA" d="M178.807,28.133c-2.217,0-3.943-0.684-5.184-2.048c-1.238-1.365-1.857-2.988-1.857-5.448
			c0-2.43,0.598-4.376,1.795-5.84c1.195-1.463,2.809-2.196,4.838-2.196c1.795,0,3.211,0.628,4.25,1.881
			c1.037,1.254,1.557,2.954,1.557,5.104v1.122h-10.98c0.018,2.095,0.508,3.405,1.465,4.509s2.33,1.655,4.117,1.655
			c0.867,0,1.633-0.061,2.291-0.183c0.66-0.121,1.494-0.383,2.504-0.786v1.263c-0.859,0.374-1.654,0.629-2.383,0.765
			C180.488,28.064,179.684,28.133,178.807,28.133 M178.398,13.835c-1.467,0-2.646,0.484-3.535,1.451
			c-0.887,0.968-1.406,2.363-1.557,4.187h9.426c0-1.767-0.385-3.148-1.15-4.144C180.814,14.333,179.756,13.835,178.398,13.835z"/>
		<path fill="#2374BA" d="M197.857,23.891c0,1.365-0.52,2.415-1.557,3.149c-1.039,0.733-2.512,1.101-4.418,1.101
			c-2.039,0-3.656-0.313-4.852-0.939v-1.5c1.531,0.766,3.15,1.148,4.852,1.148c1.504,0,2.646-0.249,3.428-0.75
			c0.781-0.5,1.172-1.166,1.172-1.999c0-3.715-6.723-2.966-8.605-5.966c-0.312-0.5-0.469-1.11-0.469-1.831
			c0-1.14,0.479-2.041,1.438-2.706c0.959-0.664,2.297-0.997,4.018-0.997c1.646,0,3.207,0.31,4.684,0.927l-0.518,1.263
			c-1.498-0.617-2.885-0.926-4.166-0.926c-1.244,0-2.23,0.206-2.959,0.617c-0.729,0.412-1.094,0.981-1.094,1.71
			c0,3.604,6.672,2.853,8.576,5.918C197.699,22.614,197.857,23.208,197.857,23.891"/>
		<rect x="152.662" y="12.585" fill="#2374BA" width="1.389" height="15.555"/>
	</g>
</g>
</svg>
